<svg width="73" height="70" viewBox="0 0 73 70" fill="none" xmlns="http://www.w3.org/2000/svg">
<path d="M51.6734 7.86184C58.1698 17.5858 61.8794 28.6996 58.1294 40.0639C54.7445 50.3215 45.5194 56.3973 34.9256 48.787C29.9107 45.1846 26.6564 37.9143 29.9147 32.5127C33.5447 26.4949 41.6009 31.8263 43.7864 35.9217C48.891 45.487 45.5838 58.3853 34.354 64.2119C21.0553 71.112 15.3318 57.9219 15.4369 57.9188" stroke="#665AB5" stroke-width="1.88444" stroke-miterlimit="1.5" stroke-linecap="round" stroke-linejoin="round"/>
<path d="M65.4396 10.6228C64.0711 10.8893 62.73 10.6206 61.3763 10.4139C56.9315 9.73567 52.3867 7.73399 49.6254 4.43303C51.2159 8.66659 51.686 14.6426 48.3004 18.2276" stroke="#665AB5" stroke-width="1.88444" stroke-miterlimit="1.5" stroke-linecap="round" stroke-linejoin="round"/>
</svg>
