<svg width="16" height="16" viewBox="0 0 16 16" fill="none" xmlns="http://www.w3.org/2000/svg">
<mask id="path-1-inside-1_1_16655" fill="white">
<path d="M15.8003 8.96279H9.46077V15.3916H6.9309V8.96279H0.621094V6.67102H6.9309V0.212402H9.46077V6.67102H15.8003V8.96279Z"/>
</mask>
<path d="M15.8003 8.96279H9.46077V15.3916H6.9309V8.96279H0.621094V6.67102H6.9309V0.212402H9.46077V6.67102H15.8003V8.96279Z" fill="black"/>
<path d="M15.8003 8.96279V13.0718H19.9094V8.96279H15.8003ZM9.46077 8.96279V4.85374H5.35172V8.96279H9.46077ZM9.46077 15.3916V19.5007H13.5698V15.3916H9.46077ZM6.9309 15.3916H2.82185V19.5007H6.9309V15.3916ZM6.9309 8.96279H11.0399V4.85374H6.9309V8.96279ZM0.621094 8.96279H-3.48796V13.0718H0.621094V8.96279ZM0.621094 6.67102V2.56197H-3.48796V6.67102H0.621094ZM6.9309 6.67102V10.7801H11.0399V6.67102H6.9309ZM6.9309 0.212402V-3.89665H2.82185V0.212402H6.9309ZM9.46077 0.212402H13.5698V-3.89665H9.46077V0.212402ZM9.46077 6.67102H5.35172V10.7801H9.46077V6.67102ZM15.8003 6.67102H19.9094V2.56197H15.8003V6.67102ZM15.8003 4.85374H9.46077V13.0718H15.8003V4.85374ZM5.35172 8.96279V15.3916H13.5698V8.96279H5.35172ZM9.46077 11.2826H6.9309V19.5007H9.46077V11.2826ZM11.0399 15.3916V8.96279H2.82185V15.3916H11.0399ZM6.9309 4.85374H0.621094V13.0718H6.9309V4.85374ZM4.73014 8.96279V6.67102H-3.48796V8.96279H4.73014ZM0.621094 10.7801H6.9309V2.56197H0.621094V10.7801ZM11.0399 6.67102V0.212402H2.82185V6.67102H11.0399ZM6.9309 4.32145H9.46077V-3.89665H6.9309V4.32145ZM5.35172 0.212402V6.67102H13.5698V0.212402H5.35172ZM9.46077 10.7801H15.8003V2.56197H9.46077V10.7801ZM11.6913 6.67102V8.96279H19.9094V6.67102H11.6913Z" fill="white" mask="url(#path-1-inside-1_1_16655)"/>
</svg>
