<svg width="18" height="18" viewBox="0 0 24 23" fill="none" xmlns="http://www.w3.org/2000/svg">
<path fill-rule="evenodd" clip-rule="evenodd" d="M12.2008 0.294884L15.4826 7.26932L22.8188 8.38799C23.0087 8.41751 23.1662 8.55695 23.2254 8.7479C23.2845 8.93886 23.2351 9.14837 23.0978 9.28867L17.7903 14.7163L19.0434 22.3818C19.0764 22.5795 18.999 22.7796 18.8438 22.8977C18.6886 23.0158 18.4827 23.0315 18.3129 22.938L11.7507 19.3196L5.18864 22.9391C5.01888 23.0328 4.81286 23.0174 4.65761 22.8994C4.50235 22.7813 4.42494 22.5811 4.45807 22.3834L5.71118 14.7163L0.402187 9.28867C0.264878 9.14837 0.21545 8.93886 0.274607 8.7479C0.333764 8.55695 0.491294 8.41751 0.681213 8.38799L8.0174 7.26932L11.3007 0.294884C11.3843 0.114543 11.5591 0 11.7507 0C11.9424 0 12.1172 0.114543 12.2008 0.294884Z" fill="#F59E0B"/>
</svg>
