<svg width="100" height="18" viewBox="0 0 70 12" fill="none" xmlns="http://www.w3.org/2000/svg">
<g opacity="0.8">
<path d="M5.90765 0.791547C6.13613 0.0883642 7.13094 0.0883646 7.35942 0.791548L8.17576 3.30399C8.27794 3.61846 8.57099 3.83137 8.90165 3.83137H11.5434C12.2827 3.83137 12.5902 4.7775 11.992 5.21209L9.85479 6.76486C9.58729 6.95922 9.47535 7.30372 9.57753 7.61819L10.3939 10.1306C10.6223 10.8338 9.81753 11.4186 9.21936 10.984L7.08216 9.43119C6.81465 9.23683 6.45242 9.23683 6.18491 9.43119L4.0477 10.984C3.44954 11.4186 2.64472 10.8338 2.8732 10.1306L3.68954 7.61819C3.79172 7.30372 3.67978 6.95922 3.41227 6.76486L1.27507 5.21209C0.676904 4.7775 0.984319 3.83137 1.72369 3.83137H4.36542C4.69608 3.83137 4.98913 3.61846 5.09131 3.30399L5.90765 0.791547Z" fill="#F59E0B"/>
<path d="M20.0981 0.791547C20.3266 0.0883642 21.3214 0.0883646 21.5498 0.791548L22.3662 3.30399C22.4684 3.61846 22.7614 3.83137 23.0921 3.83137H25.7338C26.4732 3.83137 26.7806 4.7775 26.1824 5.21209L24.0452 6.76486C23.7777 6.95922 23.6658 7.30372 23.768 7.61819L24.5843 10.1306C24.8128 10.8338 24.008 11.4186 23.4098 10.984L21.2726 9.43119C21.0051 9.23683 20.6428 9.23683 20.3753 9.43119L18.2381 10.984C17.64 11.4186 16.8351 10.8338 17.0636 10.1306L17.88 7.61819C17.9821 7.30372 17.8702 6.95922 17.6027 6.76486L15.4655 5.21209C14.8673 4.7775 15.1747 3.83137 15.9141 3.83137H18.5559C18.8865 3.83137 19.1796 3.61846 19.2817 3.30399L20.0981 0.791547Z" fill="#F59E0B"/>
<path d="M34.2875 0.791547C34.516 0.0883642 35.5108 0.0883646 35.7393 0.791548L36.5556 3.30399C36.6578 3.61846 36.9509 3.83137 37.2815 3.83137H39.9233C40.6626 3.83137 40.97 4.7775 40.3719 5.21209L38.2347 6.76486C37.9672 6.95922 37.8552 7.30372 37.9574 7.61819L38.7738 10.1306C39.0022 10.8338 38.1974 11.4186 37.5992 10.984L35.462 9.43119C35.1945 9.23683 34.8323 9.23683 34.5648 9.43119L32.4276 10.984C31.8294 11.4186 31.0246 10.8338 31.2531 10.1306L32.0694 7.61819C32.1716 7.30372 32.0597 6.95922 31.7922 6.76486L29.6549 5.21209C29.0568 4.7775 29.3642 3.83137 30.1036 3.83137H32.7453C33.076 3.83137 33.369 3.61846 33.4712 3.30399L34.2875 0.791547Z" fill="#F59E0B"/>
<path d="M48.4838 0.791547C48.7123 0.0883642 49.7071 0.0883646 49.9356 0.791548L50.7519 3.30399C50.8541 3.61846 51.1472 3.83137 51.4778 3.83137H54.1195C54.8589 3.83137 55.1663 4.7775 54.5682 5.21209L52.431 6.76486C52.1635 6.95922 52.0515 7.30372 52.1537 7.61819L52.97 10.1306C53.1985 10.8338 52.3937 11.4186 51.7955 10.984L49.6583 9.43119C49.3908 9.23683 49.0286 9.23683 48.7611 9.43119L46.6239 10.984C46.0257 11.4186 45.2209 10.8338 45.4494 10.1306L46.2657 7.61819C46.3679 7.30372 46.256 6.95922 45.9884 6.76486L43.8512 5.21209C43.2531 4.7775 43.5605 3.83137 44.2999 3.83137H46.9416C47.2722 3.83137 47.5653 3.61846 47.6675 3.30399L48.4838 0.791547Z" fill="#F59E0B"/>
<path d="M62.6782 0.791547C62.9066 0.0883642 63.9014 0.0883646 64.1299 0.791548L64.9463 3.30399C65.0484 3.61846 65.3415 3.83137 65.6722 3.83137H68.3139C69.0533 3.83137 69.3607 4.7775 68.7625 5.21209L66.6253 6.76486C66.3578 6.95922 66.2459 7.30372 66.348 7.61819L67.1644 10.1306C67.3929 10.8338 66.588 11.4186 65.9899 10.984L63.8527 9.43119C63.5852 9.23683 63.2229 9.23683 62.9554 9.43119L60.8182 10.984C60.22 11.4186 59.4152 10.8338 59.6437 10.1306L60.46 7.61819C60.5622 7.30372 60.4503 6.95922 60.1828 6.76486L58.0456 5.21209C57.4474 4.7775 57.7548 3.83137 58.4942 3.83137H61.1359C61.4666 3.83137 61.7596 3.61846 61.8618 3.30399L62.6782 0.791547Z" fill="#F59E0B"/>
</g>
</svg>
