<svg width="123" height="31" viewBox="0 0 88 22" fill="none" xmlns="http://www.w3.org/2000/svg">
<path d="M23.2548 8.05273H32.1035V9.70002H28.6194V18.9861H26.7097V9.70002H23.2402L23.2548 8.05273ZM31.7245 11.0703H33.3572V12.601H33.3864C33.4447 12.3823 33.5467 12.1782 33.6925 11.9742C33.8383 11.7701 34.0132 11.5806 34.2319 11.4202C34.436 11.2453 34.6692 11.1141 34.9316 11.012C35.1794 10.91 35.4418 10.8517 35.7042 10.8517C35.9083 10.8517 36.0541 10.8662 36.127 10.8662C36.1999 10.8808 36.2873 10.8954 36.3602 10.8954V12.5718C36.2436 12.5427 36.1124 12.5281 35.9812 12.5135C35.85 12.499 35.7334 12.4844 35.6022 12.4844C35.3106 12.4844 35.0337 12.5427 34.7713 12.6593C34.5089 12.7759 34.2902 12.9509 34.0861 13.1695C33.8966 13.4028 33.7362 13.6798 33.6196 14.015C33.503 14.3503 33.4447 14.7439 33.4447 15.1813V18.9423H31.6953L31.7245 11.0703ZM44.378 18.9861H42.6578V17.8782H42.6287C42.41 18.2863 42.0893 18.5925 41.6665 18.8403C41.2438 19.0881 40.8064 19.2047 40.3691 19.2047C39.3341 19.2047 38.576 18.9569 38.1096 18.4321C37.6431 17.9219 37.4098 17.1347 37.4098 16.0997V11.0703H39.1592V15.9247C39.1592 16.6245 39.2904 17.1201 39.5673 17.3971C39.8297 17.6886 40.2088 17.8344 40.6898 17.8344C41.0543 17.8344 41.3604 17.7761 41.6082 17.6595C41.856 17.5429 42.0601 17.3971 42.2059 17.2076C42.3663 17.0181 42.4683 16.7848 42.5412 16.5224C42.6141 16.26 42.6432 15.9685 42.6432 15.6623V11.0703H44.3926V18.9861H44.378ZM47.3519 16.4495C47.4102 16.9598 47.5997 17.3096 47.935 17.5283C48.2703 17.7324 48.6784 17.8344 49.1449 17.8344C49.3053 17.8344 49.4948 17.8198 49.6989 17.7907C49.903 17.7615 50.1071 17.7178 50.282 17.6449C50.4715 17.572 50.6173 17.47 50.7339 17.3242C50.8505 17.1784 50.9088 17.0035 50.8943 16.7848C50.8797 16.5662 50.8068 16.3766 50.6464 16.2309C50.4861 16.0851 50.2966 15.983 50.0633 15.881C49.8301 15.7935 49.5531 15.7206 49.247 15.6623C48.9408 15.604 48.6347 15.5311 48.314 15.4582C47.9933 15.3854 47.6726 15.2979 47.3664 15.1958C47.0603 15.0938 46.7979 14.9626 46.5501 14.7731C46.3168 14.5982 46.1128 14.3795 45.9816 14.1025C45.8358 13.8255 45.7629 13.5048 45.7629 13.0966C45.7629 12.6593 45.8649 12.3094 46.0836 12.0179C46.2877 11.7263 46.5647 11.4931 46.8854 11.3182C47.2061 11.1432 47.5705 11.012 47.9641 10.9391C48.3577 10.8662 48.7368 10.8371 49.0866 10.8371C49.4948 10.8371 49.8884 10.8808 50.2528 10.9683C50.6173 11.0558 50.9672 11.187 51.2587 11.391C51.5648 11.5806 51.8127 11.843 52.0022 12.1491C52.2063 12.4552 52.3229 12.8342 52.3812 13.2716H50.559C50.4715 12.8488 50.282 12.5718 49.9904 12.4261C49.6843 12.2803 49.349 12.2074 48.9554 12.2074C48.8388 12.2074 48.6784 12.222 48.5181 12.2366C48.3432 12.2657 48.1974 12.2949 48.037 12.3532C47.8912 12.4115 47.76 12.499 47.658 12.601C47.556 12.703 47.4976 12.8488 47.4976 13.0238C47.4976 13.2424 47.5705 13.4028 47.7163 13.534C47.8621 13.6652 48.0516 13.7672 48.2994 13.8693C48.5327 13.9567 48.8096 14.0296 49.1158 14.0879C49.4219 14.1462 49.7426 14.2191 50.0633 14.292C50.384 14.3649 50.6902 14.4524 50.9963 14.5544C51.3024 14.6565 51.5794 14.7877 51.8127 14.9772C52.0459 15.1521 52.25 15.3708 52.3958 15.6332C52.5416 15.8956 52.6144 16.2309 52.6144 16.6099C52.6144 17.0764 52.5124 17.47 52.2937 17.8053C52.0751 18.126 51.7981 18.403 51.4628 18.607C51.1275 18.8111 50.7339 18.9569 50.3257 19.059C49.903 19.1464 49.4948 19.2047 49.0866 19.2047C48.591 19.2047 48.1245 19.1464 47.7017 19.0298C47.279 18.9132 46.9 18.7382 46.5938 18.5196C46.2877 18.2863 46.0399 18.0094 45.8649 17.6595C45.69 17.3242 45.588 16.916 45.5734 16.435H47.3373V16.4495H47.3519ZM53.1101 11.0703H54.4367V8.67958H56.186V11.0558H57.7604V12.3532H56.186V16.5807C56.186 16.7702 56.2006 16.916 56.2152 17.0618C56.2297 17.193 56.2735 17.3096 56.3172 17.3971C56.3755 17.4846 56.463 17.5574 56.565 17.6012C56.6816 17.6449 56.8274 17.6741 57.0315 17.6741C57.1481 17.6741 57.2793 17.6741 57.396 17.6595C57.5126 17.6449 57.6438 17.6303 57.7604 17.6012V18.9569C57.5709 18.9861 57.3814 19.0006 57.1919 19.0152C57.0023 19.0444 56.8274 19.0444 56.6233 19.0444C56.1568 19.0444 55.7924 19.0006 55.5154 18.9132C55.2384 18.8257 55.0198 18.6945 54.8594 18.5342C54.6991 18.3592 54.597 18.1551 54.5387 17.9073C54.4804 17.6595 54.4512 17.3534 54.4367 17.0326V12.3678H53.1101V11.0412V11.0703ZM58.9849 11.0703H60.6322V12.1491H60.6614C60.9092 11.6826 61.2445 11.3619 61.6818 11.1578C62.1191 10.9537 62.5856 10.8517 63.1104 10.8517C63.7373 10.8517 64.2767 10.9537 64.7431 11.187C65.2096 11.4056 65.5887 11.6972 65.8948 12.0908C66.2009 12.4698 66.4342 12.9217 66.5799 13.4319C66.7257 13.9422 66.8132 14.4961 66.8132 15.0646C66.8132 15.604 66.7403 16.1142 66.6091 16.6099C66.4633 17.1055 66.2592 17.5574 65.9823 17.9365C65.7053 18.3155 65.3554 18.6216 64.9181 18.8549C64.4808 19.0881 63.9851 19.2047 63.402 19.2047C63.1542 19.2047 62.8918 19.1756 62.6439 19.1318C62.3961 19.0881 62.1483 19.0152 61.9151 18.9132C61.6818 18.8111 61.4632 18.6799 61.2736 18.5196C61.0695 18.3592 60.9092 18.1697 60.778 17.9656H60.7488V21.9162H58.9995V11.0703H58.9849ZM65.093 15.0355C65.093 14.6856 65.0493 14.3358 64.9472 14.0005C64.8598 13.6652 64.714 13.3736 64.5245 13.1112C64.335 12.8488 64.1017 12.6447 63.8393 12.4844C63.5624 12.324 63.2416 12.2511 62.8918 12.2511C62.1629 12.2511 61.6089 12.499 61.2299 13.0092C60.8655 13.5194 60.6759 14.2046 60.6759 15.0501C60.6759 15.4582 60.7197 15.8227 60.8217 16.158C60.9238 16.4933 61.055 16.7848 61.2591 17.0326C61.4486 17.2805 61.6818 17.47 61.9588 17.6158C62.2358 17.7615 62.5419 17.8344 62.9063 17.8344C63.3145 17.8344 63.6352 17.747 63.9122 17.5866C64.1892 17.4262 64.4079 17.2076 64.5974 16.9598C64.7723 16.6974 64.9035 16.4058 64.9764 16.0705C65.0493 15.7206 65.093 15.3854 65.093 15.0355ZM68.1689 8.05273H69.9183V9.70002H68.1689V8.05273ZM68.1689 11.0703H69.9183V18.9861H68.1689V11.0703ZM71.4781 8.05273H73.2274V18.9861H71.4781V8.05273ZM78.5629 19.2047C77.936 19.2047 77.3675 19.1027 76.8719 18.884C76.3762 18.6654 75.968 18.3884 75.6182 18.0239C75.2829 17.6595 75.0205 17.2076 74.8455 16.6974C74.6706 16.1871 74.5686 15.6186 74.5686 15.0209C74.5686 14.4232 74.656 13.8693 74.8455 13.359C75.0205 12.8488 75.2829 12.4115 75.6182 12.0325C75.9535 11.668 76.3762 11.3765 76.8719 11.1724C77.3675 10.9683 77.936 10.8517 78.5629 10.8517C79.1897 10.8517 79.7583 10.9537 80.2539 11.1724C80.7495 11.3765 81.1577 11.668 81.5076 12.0325C81.8429 12.3969 82.1053 12.8488 82.2802 13.359C82.4551 13.8693 82.5572 14.4232 82.5572 15.0209C82.5572 15.6332 82.4697 16.1871 82.2802 16.6974C82.0907 17.2076 81.8429 17.6449 81.5076 18.0239C81.1723 18.3884 80.7495 18.6799 80.2539 18.884C79.7583 19.0881 79.2043 19.2047 78.5629 19.2047ZM78.5629 17.8198C78.9419 17.8198 79.2918 17.7324 79.5687 17.572C79.8603 17.4117 80.079 17.193 80.2685 16.9306C80.458 16.6682 80.5892 16.3621 80.6767 16.0414C80.7641 15.7061 80.8079 15.3708 80.8079 15.0209C80.8079 14.6856 80.7641 14.3503 80.6767 14.015C80.5892 13.6798 80.458 13.3882 80.2685 13.1258C80.079 12.8634 79.8457 12.6593 79.5687 12.499C79.2772 12.3386 78.9419 12.2511 78.5629 12.2511C78.1838 12.2511 77.834 12.3386 77.557 12.499C77.2655 12.6593 77.0468 12.878 76.8573 13.1258C76.6678 13.3882 76.5366 13.6798 76.4491 14.015C76.3616 14.3503 76.3179 14.6856 76.3179 15.0209C76.3179 15.3708 76.3616 15.7061 76.4491 16.0414C76.5366 16.3766 76.6678 16.6682 76.8573 16.9306C77.0468 17.193 77.28 17.4117 77.557 17.572C77.8486 17.747 78.1838 17.8198 78.5629 17.8198ZM83.082 11.0703H84.4086V8.67958H86.1579V11.0558H87.7323V12.3532H86.1579V16.5807C86.1579 16.7702 86.1725 16.916 86.1871 17.0618C86.2016 17.193 86.2454 17.3096 86.2891 17.3971C86.3474 17.4846 86.4349 17.5574 86.5369 17.6012C86.6535 17.6449 86.7993 17.6741 87.0034 17.6741C87.12 17.6741 87.2512 17.6741 87.3679 17.6595C87.4845 17.6449 87.6157 17.6303 87.7323 17.6012V18.9569C87.5428 18.9861 87.3533 19.0006 87.1638 19.0152C86.9743 19.0444 86.7993 19.0444 86.5952 19.0444C86.1287 19.0444 85.7643 19.0006 85.4873 18.9132C85.2103 18.8257 84.9917 18.6945 84.8313 18.5342C84.671 18.3592 84.5689 18.1551 84.5106 17.9073C84.4523 17.6595 84.4231 17.3534 84.4086 17.0326V12.3678H83.082V11.0412V11.0703Z" fill="black"/>
<path d="M21.2139 8.05247H13.2107L10.747 0.442871L8.26882 8.05247L0.265625 8.03789L6.73816 12.7465L4.25993 20.3561L10.7325 15.6475L17.205 20.3561L14.7414 12.7465L21.2139 8.05247Z" fill="#00B67A"/>
<path d="M15.2949 14.4692L14.7409 12.7488L10.7461 15.6501L15.2949 14.4692Z" fill="#005128"/>
</svg>
